<svg width="210" height="32" viewBox="0 0 210 32" fill="none" xmlns="http://www.w3.org/2000/svg">
<path d="M66.199 25.2887H61.7082L50.2544 11.3632L48.3708 8.39778H48.3098V25.2887H42.9688V0H47.4596L59.0442 13.9255L60.8013 16.7956H60.8624V0H66.199V25.2887Z" fill="black"/>
<path d="M89.84 17.4805H74.0479L74.5188 17.9791C75.2731 19.9778 77.0912 21.2871 79.7944 21.2871C81.7739 21.2871 83.374 20.6931 84.9437 19.4142L88.1134 22.5964C85.759 24.6254 83.0906 25.5922 79.7944 25.5922C72.4783 25.5922 68.9336 21.1917 68.9336 15.6033C68.9336 9.70273 72.7966 5.30225 79.5154 5.30225C86.2342 5.30225 89.9708 9.85881 89.9708 15.6033C89.9708 16.1019 89.9403 16.8519 89.8443 17.4762L89.84 17.4805ZM84.8477 13.2968L84.3463 12.7982C83.6226 10.7389 82.0224 9.58134 79.511 9.58134C76.9997 9.58134 75.3995 10.7996 74.5842 12.7982L74.1133 13.2968H84.8521H84.8477Z" fill="black"/>
<path d="M119.219 5.61865L113.067 25.2843H107.73L105.092 16.3879L104.495 13.1407H104.434L103.776 16.3879L101.138 25.2843H95.7707L89.6797 5.61865H95.2039L97.9332 15.3604L98.5 18.6684H98.5611L99.1889 15.3604L102.267 5.61865H106.632L109.74 15.3604L110.368 18.6987H110.429L110.996 15.3604L113.725 5.61865H119.219Z" fill="black"/>
<path d="M131.471 25.6312C129.213 25.6312 127.107 24.9115 125.978 23.7886H125.917V31.8742H120.676V5.61872H125.917V7.05375H125.978C127.172 5.99157 129.178 5.33691 131.471 5.33691C138.064 5.33691 141.329 9.61601 141.329 15.4515C141.329 21.2871 138.129 25.6268 131.471 25.6268V25.6312ZM130.874 9.80243C127.137 9.80243 125.633 12.0178 125.633 15.4862C125.633 18.9546 127.107 21.105 130.843 21.105C134.58 21.105 136.084 18.9806 136.084 15.4862C136.084 11.9918 134.61 9.80243 130.874 9.80243Z" fill="black"/>
<path d="M162.457 25.3191H157.212V24.1962H157.151C155.677 25.163 153.636 25.6312 151.626 25.6312C147.733 25.6312 142.68 24.2265 142.68 19.1671C142.68 13.2058 150.872 12.6119 155.895 12.6119C156.052 12.6119 157.465 12.6119 157.652 12.6422L157.12 12.1436C156.994 10.4875 155.489 9.64641 153.135 9.64641C151.156 9.64641 149.115 10.1146 147.327 11.3026L144.092 8.0553C146.791 6.15204 149.839 5.34131 153.196 5.34131C158.533 5.34131 162.457 7.68245 162.457 13.0844V25.3234V25.3191ZM157.717 16.7652C157.53 16.7349 156.649 16.7349 156.523 16.7349C155.677 16.7349 154.857 16.7349 153.793 16.7956C152.756 16.8259 151.657 16.9213 150.685 17.1381C148.705 17.5456 147.89 18.2306 147.89 19.2278C147.89 20.6628 149.773 21.2871 151.814 21.2871C153.414 21.2871 157.212 21.1007 157.212 19.1324V17.2595L157.713 16.7609L157.717 16.7652Z" fill="black"/>
<path d="M185.388 5.61885V23.1644C185.388 28.7528 181.935 32.0001 175.247 32.0001C171.667 32.0001 168.746 31.1243 165.829 29.1604L169.343 25.666C171.131 26.8843 173.237 27.5389 175.247 27.5389C178.447 27.5389 180.143 25.9478 180.143 23.3552V22.7916H180.082C178.857 23.6977 176.943 24.2917 174.933 24.2917C168.184 24.2917 164.73 20.3897 164.73 14.8013C164.73 9.62048 168.245 5.31103 174.902 5.31103C176.816 5.31103 179.014 5.99604 180.082 6.96718H180.143V5.62319H185.384L185.388 5.61885ZM175.186 9.77222C171.606 9.77222 169.976 11.9269 169.976 14.862C169.976 17.7971 171.733 19.7958 175.186 19.7958C179.014 19.7958 180.396 17.7364 180.396 14.862C180.396 11.9876 178.731 9.77222 175.186 9.77222Z" fill="black"/>
<path d="M208.863 17.4806H193.071L193.542 17.9791C194.297 19.9778 196.115 21.2871 198.818 21.2871C200.797 21.2871 202.397 20.6931 203.967 19.4142L207.137 22.5964C204.782 24.6254 202.114 25.5922 198.818 25.5922C191.502 25.5922 187.957 21.1917 187.957 15.6033C187.957 9.70275 191.82 5.30226 198.539 5.30226C205.258 5.30226 208.994 9.85882 208.994 15.6033C208.994 16.1019 208.964 16.8519 208.868 17.4762L208.863 17.4806ZM203.871 13.2968L203.37 12.7983C202.646 10.7389 201.046 9.58136 198.534 9.58136C196.023 9.58136 194.423 10.7996 193.608 12.7983L193.137 13.2968H203.876H203.871Z" fill="black"/>
<path fill-rule="evenodd" clip-rule="evenodd" d="M10.6667 0H21.3333H32L21.3333 10.6667H10.6667H0L10.6667 0Z" fill="#08BDB8"/>
<path fill-rule="evenodd" clip-rule="evenodd" d="M21.3281 10.6667V21.3333V32L31.9948 21.3333V10.6667V0L21.3281 10.6667Z" fill="#FFCF36"/>
<path d="M21.3281 0V10.6667L31.9948 0H21.3281Z" fill="#008C85"/>
<path d="M21.3281 10.6667H31.9948V0L21.3281 10.6667Z" fill="#FF7F1F"/>
</svg>
